<svg width="25" height="20" viewBox="0 0 25 20" fill="none" xmlns="http://www.w3.org/2000/svg">
<path d="M12.4997 8.33333C11.3946 8.33333 10.3348 7.89435 9.5534 7.11294C8.77199 6.33154 8.33301 5.27174 8.33301 4.16667C8.33301 3.0616 8.77199 2.00179 9.5534 1.22039C10.3348 0.438987 11.3946 0 12.4997 0C13.6047 0 14.6646 0.438987 15.446 1.22039C16.2274 2.00179 16.6663 3.0616 16.6663 4.16667C16.6663 5.27174 16.2274 6.33154 15.446 7.11294C14.6646 7.89435 13.6047 8.33333 12.4997 8.33333ZM12.4997 1.66667C11.1163 1.66667 9.99967 2.78333 9.99967 4.16667C9.99967 5.55 11.1163 6.66667 12.4997 6.66667C13.883 6.66667 14.9997 5.55 14.9997 4.16667C14.9997 2.78333 13.883 1.66667 12.4997 1.66667Z" fill="black"/>
<path d="M22.5 15C22.0333 15 21.6667 14.6333 21.6667 14.1667C21.6667 13.7 22.0333 13.3333 22.5 13.3333C22.9667 13.3333 23.3333 12.9667 23.3333 12.5C23.3333 11.3949 22.8943 10.3351 22.1129 9.55372C21.3315 8.77232 20.2717 8.33333 19.1667 8.33333H17.5C17.0333 8.33333 16.6667 7.96667 16.6667 7.5C16.6667 7.03333 17.0333 6.66667 17.5 6.66667C18.8833 6.66667 20 5.55 20 4.16667C20 2.78333 18.8833 1.66667 17.5 1.66667C17.0333 1.66667 16.6667 1.3 16.6667 0.833333C16.6667 0.366667 17.0333 0 17.5 0C18.6051 0 19.6649 0.438987 20.4463 1.22039C21.2277 2.00179 21.6667 3.0616 21.6667 4.16667C21.6667 5.2 21.3 6.13333 20.6667 6.86667C23.15 7.53333 25 9.8 25 12.5C25 13.8833 23.8833 15 22.5 15ZM2.5 15C1.11667 15 0 13.8833 0 12.5C0 9.8 1.83333 7.53333 4.33333 6.86667C3.71667 6.13333 3.33333 5.2 3.33333 4.16667C3.33333 3.0616 3.77232 2.00179 4.55372 1.22039C5.33512 0.438987 6.39493 0 7.5 0C7.96667 0 8.33333 0.366667 8.33333 0.833333C8.33333 1.3 7.96667 1.66667 7.5 1.66667C6.11667 1.66667 5 2.78333 5 4.16667C5 5.55 6.11667 6.66667 7.5 6.66667C7.96667 6.66667 8.33333 7.03333 8.33333 7.5C8.33333 7.96667 7.96667 8.33333 7.5 8.33333H5.83333C4.72826 8.33333 3.66846 8.77232 2.88705 9.55372C2.10565 10.3351 1.66667 11.3949 1.66667 12.5C1.66667 12.9667 2.03333 13.3333 2.5 13.3333C2.96667 13.3333 3.33333 13.7 3.33333 14.1667C3.33333 14.6333 2.96667 15 2.5 15ZM17.5 20H7.5C6.11667 20 5 18.8833 5 17.5V15.8333C5 12.6167 7.61667 10 10.8333 10H14.1667C17.3833 10 20 12.6167 20 15.8333V17.5C20 18.8833 18.8833 20 17.5 20ZM10.8333 11.6667C9.72826 11.6667 8.66846 12.1057 7.88705 12.8871C7.10565 13.6685 6.66667 14.7283 6.66667 15.8333V17.5C6.66667 17.9667 7.03333 18.3333 7.5 18.3333H17.5C17.9667 18.3333 18.3333 17.9667 18.3333 17.5V15.8333C18.3333 14.7283 17.8943 13.6685 17.1129 12.8871C16.3315 12.1057 15.2717 11.6667 14.1667 11.6667H10.8333Z" fill="black"/>
</svg>
